# xmcd CD database file
# Copyright (C) 1993-1996 Ti Kan
#
# Track frame offsets:
#  150
#  20244
#  41164
#  59240
#  79208
#  94435
#  109410
#  130274
#  149836
#  167346
#  185854
#  203919
#  219973
#  235990
#  253927
#  270484
#  292904
#  308866
#  323026
#  338411
#
# Disc length: 4777 seconds
#
# Revision: 1
# Processed by: cddbd v1.5.1PL0 Copyright (c) Steve Scherf et al.
# Submitted via: Advanced CD Ripper Pro 2.0
#
DISCID=3f12a714
DTITLE=Guilherme e Santiago - Especial
DYEAR=2004
DGENRE=Country
TTITLE0=Tempo De Paz
TTITLE1=100 Anos
TTITLE2=Xote Dos Milagres
TTITLE3=Um Dia Perfeito
TTITLE4=Solução
TTITLE5=Pra Você
TTITLE6=Balanço Do Buzão
TTITLE7=Relaxa
TTITLE8=Rindo A Toa
TTITLE9=Asas
TTITLE10=Um Dia Inteira
TTITLE11=PaciêNcia Faz O Monge
TTITLE12=Xote Da Alegria
TTITLE13=Oração
TTITLE14=Simples Mortais
TTITLE15=Gotas De Amor
TTITLE16=Com A Saudade
TTITLE17=Falamansa Songs
TTITLE18=Onde Está Você
TTITLE19=ConfidêNcia
EXTD=
EXTT0=
EXTT1=
EXTT2=
EXTT3=
EXTT4=
EXTT5=
EXTT6=
EXTT7=
EXTT8=
EXTT9=
EXTT10=
EXTT11=
EXTT12=
EXTT13=
EXTT14=
EXTT15=
EXTT16=
EXTT17=
EXTT18=
EXTT19=
PLAYORDER=
